<?xml version="1.0" encoding="UTF-8" standalone="no"?>
<svg
   width="268.79123"
   height="253.78674"
   viewBox="0 0 268.79123 253.78674"
   version="1.1"
   id="svg7"
   xml:space="preserve"
   xmlns="http://www.w3.org/2000/svg"
   xmlns:svg="http://www.w3.org/2000/svg"><defs
     id="defs7" /><g
     id="surface97990"
     transform="matrix(0.52521271,0,0,0.52521271,103.27786,73.078679)"
     style="display:inline"><g
       id="g7-3-6-3-2"
       transform="matrix(2.5268926,0,0,2.5268926,-200.31247,-139.70372)"
       style="display:inline"><path
         style="fill:#4b5a6a;fill-opacity:1;fill-rule:evenodd;stroke:none"
         d="m 120.13281,176.75391 -0.0195,-150.531254 -50.999999,-26 v 47 L 107,66.835938 106.88281,175.08594 c 4.7461,1.27734 9.16016,1.82812 13.25,1.65234"
         id="path1-9-4-6-0" /><path
         style="fill:#4b5a6a;fill-opacity:1;fill-rule:evenodd;stroke:none"
         d="m 69.113281,47.222656 -33.972656,17.390625 -0.02734,83.609379 c 10.664063,6.66796 22,12.17187 33.996094,16.51953 z m 0,0"
         id="path3-1-0-0-2" /><path
         style="display:inline;fill:#7b8594;fill-opacity:1;fill-rule:evenodd;stroke:none;stroke-width:1.18724"
         d="m 127,188.51142 c 14.09543,1.33203 31.76008,-0.77382 42.0949,-3.44179 -7.156,-10.6408 -27.05793,-14.55821 -42.0949,-16.55821 z"
         id="path4-9-0-6-3" /><path
         style="display:inline;fill:#7b8594;fill-opacity:1;fill-rule:evenodd;stroke:none;stroke-width:1.20409"
         d="m 127.6818,128.80413 c 19.17447,4.51742 38.03936,15.13303 44.0229,21.49807 9.06489,7.54042 11.71114,11.90752 11.69944,36.75828 -14.40996,-22.52495 -40.83736,-29.42561 -55.72234,-32.25635 z"
         id="path7-9-6-6-2-7" /><path
         style="display:inline;fill:#7b8594;fill-opacity:1;fill-rule:evenodd;stroke:none;stroke-width:1.20409"
         d="m 127,88 c 18.77397,5.078125 35.39607,14.17183 44.9841,21.25777 10.34648,8.10112 11.47084,14.87121 11.45914,39.72197 C 169.03328,126.45479 141.88498,116.83074 127,114 Z"
         id="path7-9-6-61-5" /><path
         style="display:inline;fill:#7b8594;fill-opacity:1;fill-rule:evenodd;stroke:none;stroke-width:1.19918"
         d="m 127,48 c 29.13705,10.832031 37.97123,15.558594 45.2232,21.160156 7.25757,5.605469 11.23522,12.182157 11.2206,39.879894 C 177.29844,89.172862 140.15577,78.53125 127,75 Z"
         id="path6-3-2-8-9" /><path
         style="display:inline;fill:#2f5d8a;fill-opacity:1;fill-rule:evenodd;stroke:none;stroke-width:1.02859"
         d="m 28.861692,107.43492 c -15.477251,6.50391 -14.468853,14.87109 -11.902399,20.9375 2.566455,6.06641 6.690967,9.83203 10.902266,13.15625 4.207168,3.32422 8.501124,6.20312 13.286879,8.9375 4.781624,2.73437 10.050914,5.32812 17.14276,8.34766 7.091846,3.02343 16.006247,6.47265 25.424845,9.22656 9.422732,2.75781 19.353797,4.82422 27.937577,6.28515 8.58377,1.46485 15.82027,2.32813 25.71826,2.64454 9.89388,0.32031 22.44512,0.0937 31.81,-1.48829 9.36074,-1.58203 15.5351,-4.52343 19.65135,-8.01171 4.11624,-3.49219 6.17437,-7.53516 4.91387,-12.4961 -1.25636,-4.95703 -5.83135,-10.83984 -5.83135,-10.83984 8.72017,6.32812 15.09291,15.02734 15.96493,22.25781 0.86788,7.22656 -3.76497,12.99219 -10.55099,16.87109 -6.78601,3.88282 -15.72521,5.87891 -26.24313,7.0586 -10.51379,1.17969 -22.60216,1.54687 -35.12448,0.55078 -12.51818,-1 -25.4703,-3.36719 -35.492286,-5.5 -10.021985,-2.13672 -17.117963,-4.04297 -24.569361,-6.44922 -7.455529,-2.40625 -15.266478,-5.31641 -22.321129,-8.34766 -7.05465,-3.03125 -13.34887,-6.1914 -18.266876,-8.94921 -4.913872,-2.76172 -8.447396,-5.125 -12.567775,-8.21485 -4.124511,-3.08984 -8.8317446,-6.90625 -12.307411,-11.4375 -3.4715329,-4.53125 -5.70736506,-9.77734 -4.7692244,-15.92968 0.9381407,-6.15235 5.0461207,-13.20704 27.1936744,-18.60938 z m 0,0"
         id="path5-3-6-7-2" /></g></g></svg>
